PathFileType	4	(X/Y/Z)	C:/Users/beibeiliu/ov580/test_trc/User3\sequence.29_training_dense_left.trc
DataRate	CameraRate	NumFrames	NumMarkers	Units	OrigDataRate	OrigDataStartFrame	OrigNumFrames
120	120	21	19	mm	120	131	260
Frame#	Time	ThumbCMC			ThumbMCP			ThumbIP			ThumbTip			IndexMCP			IndexPIP			IndexTip			MiddleMCP			MiddlePIP			MiddleTip			RingMCP			RingPIP			RingTip			PinkyMCP			PinkyPIP			PinkyTip			BackHand1			BackHand2			BackHand3	
		X0	Y0	Z0	X1	Y1	Z1	X2	Y2	Z2	X3	Y3	Z3	X4	Y4	Z4	X5	Y5	Z5	X6	Y6	Z6	X7	Y7	Z7	X8	Y8	Z8	X9	Y9	Z9	X10	Y10	Z10	X11	Y11	Z11	X12	Y12	Z12	X13	Y13	Z13	X14	Y14	Z14	X15	Y15	Z15	X16	Y16	Z16	X17	Y17	Z17	X18	Y18	Z18	
130	1.08333	-237.64	-11.1243	-6.70174	-230.639	-2.78198	-38.8069	-206.583	-9.46255	-59.3171	-183.235	-20.9262	-59.4986	-220.491	-27.6102	-77.0821	-198.246	-6.57521	-88.7487	-206.43	-8.90235	-56.0192	-192.493	-27.6416	-72.97	-173.007	-2.40051	-66.7272	-183.326	-5.09083	-29.277	-174.954	-34.6395	-52.5171	-168.038	-7.33793	-33.2178	-190.428	-21.1342	-11.6145	-166.26	-38.2908	-40.0354	-160.441	-17.5958	-24.7229	-176.555	-26.493	0.492157	-207.874	-67.7367	-22.5235	-215.974	-64.743	11.0754	-238.685	-45.1186	-9.67534	
131	1.09167	-232.892	-8.42559	-3.8756	-225.363	-0.326889	-36.0961	-204.893	-8.01794	-58.1012	-182.103	-24.2639	-58.4254	-217.565	-26.3117	-79.3958	-196.818	-7.74931	-90.2793	-200.276	-8.37573	-56.9701	-191.669	-29.8175	-75.1343	-170.224	-6.61844	-66.989	-180.302	-11.5945	-28.1518	-175.256	-36.4012	-53.341	-162.121	-15.8913	-33.9827	-184.389	-25.0183	-11.5333	-170.2	-44.2461	-41.3961	-157.569	-25.2978	-25.1472	-175.143	-31.2573	2.27484	-211.605	-67.7358	-19.7504	-222.741	-64.6747	9.74387	-238.831	-42.6297	-9.09708	
132	1.1	-228.17	-4.70889	-4.57151	-218.379	4.38501	-37.4213	-200.068	-10.4361	-59.1218	-181.578	-26.8971	-60.6787	-215.822	-24.6476	-77.6145	-190.182	-10.3179	-89.0002	-194.467	-5.75751	-56.7844	-190.832	-30.6021	-75.5933	-165.181	-14.2413	-66.4192	-177.88	-16.9193	-27.6412	-177.9	-37.509	-56.4436	-160.551	-23.4379	-34.8287	-184.444	-25.3209	-13.5792	-172.418	-50.383	-43.1117	-158.066	-32.1257	-26.2961	-175.715	-36.638	-1.51601	-217.513	-62.979	-23.7303	-227.455	-61.3469	12.2725	-240.586	-35.8976	-14.8645	
133	1.10833	-222.194	1.91254	-4.02449	-212.528	8.71218	-33.7599	-196.73	-10.4631	-55.5859	-180.863	-34.7547	-61.431	-216.843	-18.6366	-76.2713	-189.026	-11.2369	-91.2273	-184.021	-4.35102	-58.1211	-192.717	-32.283	-74.7555	-164.835	-16.1461	-68.4868	-172.238	-20.711	-30.345	-180.306	-48.0301	-56.478	-159.534	-29.8006	-40.9418	-183.257	-28.663	-15.0908	-173.749	-58.898	-44.477	-155.643	-43.3029	-29.2336	-172.908	-39.2719	-5.93568	-225.124	-60.5872	-20.1314	-230.079	-58.7222	11.0791	-238.892	-30.919	-9.69174	
134	1.11667	-212.558	3.3971	1.31836	-206.636	6.48254	-32.4187	-196.498	-9.65785	-56.3618	-184.914	-33.1634	-59.0163	-214.061	-15.4087	-75.1539	-183.709	-6.10276	-90.9929	-170.713	-6.4071	-63.0822	-195.259	-29.7905	-75.2062	-164.024	-24.1536	-71.7393	-173.068	-20.2067	-30.2253	-183.773	-49.1068	-57.929	-159.308	-35.7072	-41.7165	-180.997	-33.3306	-13.5916	-176.799	-61.1856	-47.9432	-159.957	-45.4979	-31.2448	-174.913	-40.6525	-6.27761	-226.065	-55.8811	-23.7092	-233.319	-52.4854	7.27289	-237.601	-22.1989	-10.2362	
135	1.125	-203.931	5.34603	6.17449	-197.138	12.8368	-27.0854	-192.567	-2.43463	-57.3007	-185.666	-29.6586	-62.4818	-207.362	-9.89239	-76.4404	-177.526	-11.2849	-87.164	-163.09	-11.7546	-58.2125	-196.781	-28.741	-73.6783	-165.299	-26.4541	-71.1106	-172.921	-29.2613	-28.3895	-186.761	-44.4539	-58.6021	-161.073	-43.7274	-39.5127	-178.794	-33.281	-13.207	-189.029	-62.1155	-46.0496	-163.586	-53.0669	-30.5653	-174.396	-45.9901	-4.05036	-231.769	-47.3799	-20.8524	-233.284	-51.2308	8.85921	-232.746	-15.0449	-6.06055	
136	1.13333	-193.896	0.919962	5.14313	-186.184	11.3263	-24.8857	-182.228	7.50796	-52.4563	-185.192	-23.6414	-62.6635	-201.083	-3.07115	-72.6385	-173.389	-11.8994	-84.0308	-158.78	-18.1318	-55.9032	-196.489	-25.1097	-71.9498	-164.326	-31.0438	-66.832	-172.099	-28.3371	-26.3792	-193.486	-46.3651	-56.2489	-166.621	-48.9153	-43.8593	-179.75	-38.7975	-10.4853	-191.05	-60.9591	-46.2997	-170.728	-60.8048	-28.4928	-180.014	-48.0977	0.844364	-233.071	-37.3776	-16.311	-235.564	-42.7844	12.7917	-226.636	-9.76878	-1.95601	
137	1.14167	-183.72	-2.51438	10.2189	-172.278	8.68155	-16.6454	-174.255	5.63829	-48.8128	-182.196	-19.5969	-57.8307	-195.452	2.53857	-63.8911	-165.728	-10.1744	-78.6085	-154.657	-20.3399	-49.1556	-196.835	-20.2118	-64.9958	-164.75	-35.7809	-62.9612	-173.545	-36.6936	-23.9642	-199.545	-44.3435	-54.4182	-173.464	-55.8953	-41.6826	-180.583	-40.8833	-8.95375	-199.423	-57.2124	-43.4713	-179.014	-61.8841	-24.407	-181.831	-53.5717	0.918721	-233.583	-27.7486	-13.2128	-232.548	-34.8029	17.8242	-217.006	-1.001	4.08172	
138	1.15	-172.913	-8.57383	16.6242	-162.656	2.96086	-11.601	-164.008	6.91347	-47.0512	-177.244	-16.9944	-56.9523	-186.086	5.27825	-61.059	-162.677	-15.9797	-74.5919	-153.478	-26.6571	-42.9816	-192.785	-18.8008	-64.8928	-166.533	-38.5466	-59.2619	-173.713	-37.7431	-21.384	-200.842	-36.4828	-53.1468	-175.769	-54.0005	-41.9238	-183.104	-47.918	-9.59183	-202.022	-50.0612	-43.085	-184.243	-62.4108	-24.6671	-186.109	-55.1229	0.562732	-232.376	-19.4362	-12.9108	-228.573	-28.6407	23.2669	-206.417	1.75968	8.19774	
139	1.15833	-163.915	-11.4313	18.1803	-154.033	0.634448	-9.67691	-157.764	3.73064	-40.3489	-172.191	-13.4188	-49.5134	-175.418	8.99201	-55.9318	-155.586	-14.7681	-69.7202	-152.414	-31.1302	-44.0675	-189.068	-15.5049	-62.5226	-167.819	-36.9485	-60.743	-171.63	-37.6285	-20.3899	-197.812	-32.6504	-51.8125	-178.629	-54.6759	-39.6603	-181.263	-44.0391	-8.39081	-209.617	-43.7099	-43.7603	-189.245	-60.7568	-31.0664	-192.279	-53.9334	-0.268189	-224.325	-13.8204	-4.1265	-226.31	-23.5481	21.7116	-199.287	-1.78647	15.9343	
140	1.16667	-160.352	-18.12	21.2952	-145.471	-5.22448	-3.16701	-147.89	2.59644	-34.6234	-169.625	-12.9738	-49.36	-169.789	8.68872	-50.8876	-153.335	-16.0961	-67.3155	-151.816	-34.7931	-41.7372	-182.635	-8.08177	-54.5197	-166.872	-36.7277	-57.6583	-172.369	-36.0363	-16.5817	-194.379	-24.7422	-50.2813	-176.454	-51.301	-40.0182	-178.918	-43.4483	-8.87864	-207.052	-37.7718	-44.5605	-189.94	-56.8209	-33.9147	-188.909	-51.3032	-6.70323	-218.176	-8.94196	-1.55637	-219.64	-23.9499	28.9987	-189.139	1.3789	19.5943	
141	1.175	-153.783	-25.8608	25.6389	-141.304	-11.7699	1.13063	-137.261	0.64924	-27.9287	-158.286	-8.39311	-44.52	-158.225	11.2613	-41.9188	-147.583	-9.29882	-64.6112	-146.599	-34.7491	-38.6917	-178.039	-4.74081	-50.8715	-160.728	-36.6177	-52.963	-168.358	-38.5083	-15.7771	-192.179	-22.7459	-49.8162	-180.551	-48.6633	-43.1992	-181.655	-47.8962	-11.1986	-204.515	-32.7098	-46.566	-191.379	-53.4427	-38.1622	-189.557	-51.0462	-3.70535	-211.229	-3.78405	-0.441899	-216.802	-19.7108	28.1643	-183.668	-5.62317	23.6284	
142	1.18333	-148.798	-34.537	29.1275	-134.926	-18.0889	4.70567	-131.317	-4.39454	-23.8828	-150.989	-6.97862	-43.2087	-151.805	11.3225	-37.2599	-145.466	-10.7655	-62.8753	-147.087	-35.3226	-41.8327	-168.508	-4.40885	-48.02	-162.773	-35.1244	-54.5736	-171.444	-38.765	-14.6453	-186.691	-15.4494	-44.7202	-180.58	-46.1219	-44.2948	-175.954	-45.244	-8.62277	-203.217	-27.3167	-44.8007	-189.26	-48.8437	-37.8643	-191.92	-53.0598	-6.32196	-203.915	-2.33704	6.31663	-213.442	-18.9052	31.1611	-178.393	-8.9363	28.5775	
143	1.19167	-146.872	-37.741	28.2539	-132.705	-24.1833	5.02092	-123.264	-10.0337	-20.0923	-135.397	-4.75455	-43.6345	-147.361	7.49903	-36.1088	-141.664	-12.8118	-61.3515	-143.405	-36.5049	-36.9751	-167.65	-5.7918	-48.4499	-162.239	-37.2244	-52.6178	-165.787	-40.7299	-13.0243	-185.112	-14.4397	-43.1582	-179.547	-47.6323	-42.5589	-177.467	-50.5454	-12.4324	-203.114	-22.3298	-40.1222	-188.764	-47.9424	-37.4335	-191.212	-49.8712	-3.79039	-197.184	-0.082961	8.76893	-209.244	-20.5362	33.537	-173.525	-12.9077	28.9842	
144	1.2	-144.262	-42.2865	25.7159	-126.674	-27.2331	1.75192	-119.292	-13.9639	-23.9977	-121.55	-4.41456	-48.9191	-143.746	2.75452	-38.2533	-137.06	-22.2628	-59.8606	-140.321	-40.4814	-30.4117	-164.514	-7.52665	-47.068	-159.971	-38.6679	-54.713	-161.717	-42.9585	-12.6602	-179.822	-19.1826	-46.0153	-177.507	-46.453	-45.6056	-176.965	-49.8241	-8.27918	-196.949	-22.229	-38.1229	-189.108	-50.2107	-34.4263	-189.748	-51.6568	-6.94458	-192.006	-1.65946	9.22581	-202.84	-19.6877	35.4513	-165.098	-12.6344	26.8875	
145	1.20833	-137.983	-41.8791	20.3152	-125.396	-32.9764	-4.13496	-118.393	-20.3922	-32.4498	-118.82	-13.687	-54.7005	-141.247	-7.78864	-47.9411	-139.618	-33.901	-62.7124	-141.419	-47.9752	-32.888	-164.224	-14.4432	-49.4633	-162.272	-45.8865	-54.7345	-160.753	-45.8269	-11.5158	-179.075	-20.6111	-44.1582	-179.087	-52.6536	-42.8448	-173.958	-50.4983	-8.55981	-197.775	-29.3846	-43.5509	-191.455	-53.8514	-34.0481	-189.762	-50.6575	-3.74672	-190.026	-3.78785	6.38226	-198.04	-17.3739	34.7399	-159.241	-15.216	25.6043	
146	1.21667	-139.214	-44.2298	17.5191	-125.899	-38.4505	-9.58387	-114.278	-32.558	-37.1996	-121.663	-26.7277	-60.315	-143.882	-17.5161	-53.0756	-140.875	-46.2286	-64.1488	-143.829	-52.3917	-27.0302	-162.276	-22.0917	-53.609	-164.111	-55.3132	-53.6303	-160.381	-50.549	-14.4997	-180.681	-30.0666	-48.7764	-179.557	-61.165	-38.776	-174.658	-56.182	-9.50392	-198.777	-34.1378	-40.6599	-189.261	-57.7278	-32.5176	-183.327	-50.2807	-1.49729	-185.08	-5.16739	3.53019	-190.88	-14.5497	32.0428	-156.48	-12.6019	21.6806	
147	1.225	-134.258	-44.1457	14.2545	-120.629	-43.7687	-12.9761	-121.373	-38.649	-42.0595	-122.055	-37.678	-67.5386	-142.869	-26.8327	-55.9425	-146.855	-58.5151	-61.6314	-145.605	-59.6524	-27.9773	-168.659	-32.409	-54.8015	-166.567	-63.3706	-51.6528	-160.198	-55.223	-13.4864	-185.823	-35.2846	-45.838	-180.22	-65.4597	-36.6379	-173.13	-55.7972	-4.08597	-202.252	-39.4047	-39.136	-188.914	-62.1522	-25.6366	-182.731	-49.1317	2.02186	-184.601	-4.64311	-1.30034	-183.724	-14.6284	34.4159	-148.592	-15.4604	17.2606	
148	1.23333	-129.619	-44.6454	16.4261	-121.355	-45.2338	-15.4684	-121.681	-45.0325	-43.7413	-125.179	-47.8498	-69.0785	-147.506	-33.3113	-55.4402	-153.87	-65.9107	-57.7652	-151.207	-61.9055	-22.4683	-167.2	-37.2555	-53.8096	-168.051	-69.7002	-45.7841	-162.825	-55.6399	-8.73699	-188.362	-41.1863	-43.4971	-183.068	-68.7849	-32.1055	-168.375	-57.378	-2.62383	-201.312	-41.4366	-34.5823	-189.277	-64.2938	-21.2602	-181.391	-48.0574	5.24173	-181.333	-5.02957	-2.46558	-176.962	-10.6108	34.7658	-146.977	-13.1588	13.6667	
149	1.24167	-130.418	-44.1043	16.6783	-118.508	-51.3508	-12.6777	-121.508	-51.8576	-46.6043	-131.571	-54.2139	-69.3704	-150.353	-43.5158	-56.4816	-157.741	-71.6939	-53.0575	-149.411	-63.8493	-17.9365	-168.3	-41.2908	-50.3901	-172.625	-74.0153	-41.9331	-158.952	-56.794	-3.29524	-185.175	-44.2	-41.0461	-184.822	-71.5818	-24.8257	-173.404	-60.3889	2.69332	-201.453	-41.5426	-29.5124	-195.284	-65.6531	-16.8414	-182.74	-48.9808	8.09063	-180.26	-4.06022	-1.75412	-178.171	-7.63436	32.9719	-142.142	-12.9495	12.8509	
150	1.25	-130.683	-43.6534	15.3246	-122.504	-53.5911	-14.4734	-122.757	-59.9203	-40.8121	-131.839	-65.4114	-64.4688	-151.86	-47.4104	-52.2096	-155.699	-81.011	-45.4651	-154.446	-70.314	-13.6489	-174.468	-49.8068	-47.7313	-175.292	-78.6356	-31.7411	-162.099	-64.4237	-1.09622	-185.611	-51.2741	-38.5954	-185.701	-74.8273	-18.4949	-171.655	-60.3421	6.78038	-205.143	-47.3791	-26.9562	-194.017	-67.8278	-9.90429	-181.486	-51.0667	14.576	-177.166	-6.43218	0.789304	-174.884	-7.03147	31.378	-142.123	-12.6842	11.8647	
